<svg width="64" height="64" viewBox="0 0 64 64" fill="none" xmlns="http://www.w3.org/2000/svg">
<path d="M42.6668 21.3334H21.3335V42.6667H42.6668V21.3334Z" fill="#FF763B"/>
<path opacity="0.4" d="M13.3335 58.6666C17.7335 58.6666 21.3335 55.0666 21.3335 50.6666V42.6666H13.3335C8.9335 42.6666 5.3335 46.2666 5.3335 50.6666C5.3335 55.0666 8.9335 58.6666 13.3335 58.6666Z" fill="#FF763B"/>
<path opacity="0.4" d="M13.3335 21.3334H21.3335V13.3334C21.3335 8.93337 17.7335 5.33337 13.3335 5.33337C8.9335 5.33337 5.3335 8.93337 5.3335 13.3334C5.3335 17.7334 8.9335 21.3334 13.3335 21.3334Z" fill="#FF763B"/>
<path opacity="0.4" d="M42.6665 21.3334H50.6665C55.0665 21.3334 58.6665 17.7334 58.6665 13.3334C58.6665 8.93337 55.0665 5.33337 50.6665 5.33337C46.2665 5.33337 42.6665 8.93337 42.6665 13.3334V21.3334Z" fill="#FF763B"/>
<path opacity="0.4" d="M50.6665 58.6666C55.0665 58.6666 58.6665 55.0666 58.6665 50.6666C58.6665 46.2666 55.0665 42.6666 50.6665 42.6666H42.6665V50.6666C42.6665 55.0666 46.2665 58.6666 50.6665 58.6666Z" fill="#FF763B"/>
</svg>
