<svg width="82" height="82" viewBox="0 0 82 82" fill="none" xmlns="http://www.w3.org/2000/svg">
<path opacity="0.4" d="M41.0002 75.2009C59.8699 75.2009 75.1668 59.9039 75.1668 41.0342C75.1668 22.1645 59.8699 6.86755 41.0002 6.86755C22.1304 6.86755 6.8335 22.1645 6.8335 41.0342C6.8335 59.9039 22.1304 75.2009 41.0002 75.2009Z" fill="#6C54FE" fill-opacity="0.24"/>
<path d="M41 23.7117C33.9275 23.7117 28.1875 29.4517 28.1875 36.5242C28.1875 43.46 33.62 49.0975 40.8292 49.3025C40.9317 49.3025 41.0683 49.3025 41.1367 49.3025C41.205 49.3025 41.3075 49.3025 41.3758 49.3025C41.41 49.3025 41.4442 49.3025 41.4442 49.3025C48.3458 49.0633 53.7783 43.46 53.8125 36.5242C53.8125 29.4517 48.0725 23.7117 41 23.7117Z" fill="#6C54FE"/>
<path d="M64.165 66.1466C58.0833 71.75 49.9516 75.2008 41 75.2008C32.0483 75.2008 23.9166 71.75 17.835 66.1466C18.655 63.0374 20.8758 60.2016 24.1216 58.0149C33.4491 51.7966 48.6191 51.7966 57.8783 58.0149C61.1583 60.2016 63.345 63.0374 64.165 66.1466Z" fill="#6C54FE"/>
</svg>
