<svg width="74" height="74" viewBox="0 0 74 74" fill="none" xmlns="http://www.w3.org/2000/svg">
<path opacity="0.4" d="M6.1665 39.7133V34.2867C6.1665 31.08 8.78734 28.4283 12.0248 28.4283C17.6057 28.4283 19.8873 24.4817 17.0815 19.6408C15.4782 16.8658 16.434 13.2583 19.2398 11.655L24.574 8.60251C27.0098 7.15334 30.1548 8.01667 31.604 10.4525L31.9432 11.0383C34.7182 15.8792 39.2815 15.8792 42.0873 11.0383L42.4265 10.4525C43.8757 8.01667 47.0207 7.15334 49.4565 8.60251L54.7907 11.655C57.5965 13.2583 58.5523 16.8658 56.949 19.6408C54.1432 24.4817 56.4248 28.4283 62.0057 28.4283C65.2123 28.4283 67.864 31.0492 67.864 34.2867V39.7133C67.864 42.92 65.2432 45.5717 62.0057 45.5717C56.4248 45.5717 54.1432 49.5183 56.949 54.3592C58.5523 57.165 57.5965 60.7417 54.7907 62.345L49.4565 65.3975C47.0207 66.8467 43.8757 65.9833 42.4265 63.5475L42.0873 62.9617C39.3123 58.1208 34.749 58.1208 31.9432 62.9617L31.604 63.5475C30.1548 65.9833 27.0098 66.8467 24.574 65.3975L19.2398 62.345C16.434 60.7417 15.4782 57.1342 17.0815 54.3592C19.8873 49.5183 17.6057 45.5717 12.0248 45.5717C8.78734 45.5717 6.1665 42.92 6.1665 39.7133Z" fill="#278D7B"/>
<path d="M36.9998 47.0208C42.5342 47.0208 47.0207 42.5343 47.0207 37C47.0207 31.4656 42.5342 26.9791 36.9998 26.9791C31.4655 26.9791 26.979 31.4656 26.979 37C26.979 42.5343 31.4655 47.0208 36.9998 47.0208Z" fill="#278D7B"/>
</svg>
