<svg width="62" height="62" viewBox="0 0 62 62" fill="none" xmlns="http://www.w3.org/2000/svg">
<g clip-path="url(#clip0_0_2437)">
<path d="M33.2813 2.81049L41.482 19.4267L59.819 22.0912C61.9057 22.3943 62.7388 24.9587 61.229 26.4306L47.96 39.3643L51.0923 57.6272C51.4488 59.7054 49.2674 61.2903 47.4011 60.3091L30.9999 51.6865L14.5988 60.3091C12.7325 61.2902 10.5511 59.7054 10.9076 57.6272L14.0399 39.3643L0.771024 26.4305C-0.738888 24.9586 0.0943544 22.3944 2.18103 22.0911L20.5181 19.4265L28.7186 2.81049C29.6519 0.919616 32.348 0.919616 33.2813 2.81049Z" fill="url(#paint0_linear_0_2437)"/>
<path d="M41.4817 19.4266L33.2813 2.81046C32.8147 1.86508 31.9074 1.39233 31 1.39233V32.851L41.4817 19.4266Z" fill="url(#paint1_linear_0_2437)"/>
<path d="M47.9601 39.364L61.2289 26.43C61.9737 25.704 62.1475 24.7123 61.8827 23.8572L31 32.8506L47.9601 39.364Z" fill="url(#paint2_linear_0_2437)"/>
<path d="M50.0879 60.1099L31 32.8513V51.6869L47.4011 60.3095C48.3377 60.8018 49.3533 60.6478 50.0879 60.1099Z" fill="url(#paint3_linear_0_2437)"/>
<path d="M30.9995 32.8513L14.0395 39.3647L10.9073 57.6276C10.7296 58.663 11.1823 59.5756 11.9116 60.1099L30.9995 32.8513Z" fill="url(#paint4_linear_0_2437)"/>
<path d="M0.117188 23.8573L30.9999 32.8507L20.518 19.4263L2.18098 22.0909C1.12372 22.2445 0.389163 22.9789 0.117188 23.8573Z" fill="url(#paint5_linear_0_2437)"/>
<path d="M14.0402 39.3639L0.771273 26.43C0.0264284 25.704 -0.14734 24.7123 0.117491 23.8572L31.0002 32.8505L14.0402 39.3639Z" fill="url(#paint6_linear_0_2437)"/>
</g>
<defs>
<linearGradient id="paint0_linear_0_2437" x1="31.0009" y1="8.29815" x2="31.0009" y2="76.708" gradientUnits="userSpaceOnUse">
<stop stop-color="#FFCF95"/>
<stop offset="0.427" stop-color="#FFC954"/>
<stop offset="1" stop-color="#FFC200"/>
</linearGradient>
<linearGradient id="paint1_linear_0_2437" x1="47.0697" y1="17.1201" x2="26.3895" y2="17.1201" gradientUnits="userSpaceOnUse">
<stop stop-color="#FFC200" stop-opacity="0"/>
<stop offset="0.203" stop-color="#FFBB00" stop-opacity="0.203"/>
<stop offset="0.499" stop-color="#FFA700" stop-opacity="0.499"/>
<stop offset="0.852" stop-color="#FF8800" stop-opacity="0.852"/>
<stop offset="1" stop-color="#FF7800"/>
</linearGradient>
<linearGradient id="paint2_linear_0_2437" x1="50.6025" y1="48.8043" x2="45.1257" y2="21.8336" gradientUnits="userSpaceOnUse">
<stop stop-color="#FFC200" stop-opacity="0"/>
<stop offset="0.203" stop-color="#FFBB00" stop-opacity="0.203"/>
<stop offset="0.499" stop-color="#FFA700" stop-opacity="0.499"/>
<stop offset="0.852" stop-color="#FF8800" stop-opacity="0.852"/>
<stop offset="1" stop-color="#FF7800"/>
</linearGradient>
<linearGradient id="paint3_linear_0_2437" x1="24.0464" y1="62.9788" x2="45.4964" y2="41.5288" gradientUnits="userSpaceOnUse">
<stop stop-color="#FFC200" stop-opacity="0"/>
<stop offset="0.203" stop-color="#FFBB00" stop-opacity="0.203"/>
<stop offset="0.499" stop-color="#FFA700" stop-opacity="0.499"/>
<stop offset="0.852" stop-color="#FF8800" stop-opacity="0.852"/>
<stop offset="1" stop-color="#FF7800"/>
</linearGradient>
<linearGradient id="paint4_linear_0_2437" x1="8.74965" y1="35.8532" x2="24.5601" y2="49.0802" gradientUnits="userSpaceOnUse">
<stop stop-color="#FFC200" stop-opacity="0"/>
<stop offset="0.203" stop-color="#FFBB00" stop-opacity="0.203"/>
<stop offset="0.499" stop-color="#FFA700" stop-opacity="0.499"/>
<stop offset="0.852" stop-color="#FF8800" stop-opacity="0.852"/>
<stop offset="1" stop-color="#FF7800"/>
</linearGradient>
<linearGradient id="paint5_linear_0_2437" x1="20.6021" y1="14.0341" x2="14.1952" y2="32.2213" gradientUnits="userSpaceOnUse">
<stop stop-color="#FFC200" stop-opacity="0"/>
<stop offset="0.203" stop-color="#FFBB00" stop-opacity="0.203"/>
<stop offset="0.499" stop-color="#FFA700" stop-opacity="0.499"/>
<stop offset="0.852" stop-color="#FF8800" stop-opacity="0.852"/>
<stop offset="1" stop-color="#FF7800"/>
</linearGradient>
<linearGradient id="paint6_linear_0_2437" x1="44.7193" y1="15.9332" x2="-2.35033" y2="35.9805" gradientUnits="userSpaceOnUse">
<stop stop-color="#FFC200" stop-opacity="0"/>
<stop offset="0.203" stop-color="#FFBB00" stop-opacity="0.203"/>
<stop offset="0.499" stop-color="#FFA700" stop-opacity="0.499"/>
<stop offset="0.852" stop-color="#FF8800" stop-opacity="0.852"/>
<stop offset="1" stop-color="#FF7800"/>
</linearGradient>
<clipPath id="clip0_0_2437">
<rect width="62" height="62" fill="white"/>
</clipPath>
</defs>
</svg>
