<svg width="56" height="56" viewBox="0 0 56 56" fill="none" xmlns="http://www.w3.org/2000/svg">
<path d="M27.5098 27.7199C26.2498 27.7199 24.9664 27.4866 23.9631 27.0433L10.1964 20.9299C6.69644 19.3666 6.18311 17.2666 6.18311 16.1233C6.18311 14.9799 6.69644 12.8799 10.1964 11.3166L23.9631 5.20325C25.9931 4.29325 29.0498 4.29325 31.0798 5.20325L44.8698 11.3166C48.3464 12.8566 48.8831 14.9799 48.8831 16.1233C48.8831 17.2666 48.3698 19.3666 44.8698 20.9299L31.0798 27.0433C30.0531 27.5099 28.7931 27.7199 27.5098 27.7199ZM27.5098 8.02659C26.7164 8.02659 25.9464 8.14325 25.3864 8.39992L11.6198 14.5133C10.1964 15.1666 9.68311 15.8199 9.68311 16.1233C9.68311 16.4266 10.1964 17.1033 11.5964 17.7333L25.3631 23.8466C26.4831 24.3366 28.5131 24.3366 29.6331 23.8466L43.4231 17.7333C44.8464 17.1033 45.3598 16.4266 45.3598 16.1233C45.3598 15.8199 44.8464 15.1433 43.4231 14.5133L29.6564 8.39992C29.0964 8.16658 28.3031 8.02659 27.5098 8.02659Z" fill="#2563EB"/>
<path d="M28 39.8767C27.1133 39.8767 26.2267 39.6901 25.3867 39.3167L9.54333 32.2701C7.14 31.2201 5.25 28.3034 5.25 25.6667C5.25 24.7101 6.04333 23.9167 7 23.9167C7.95667 23.9167 8.75 24.7101 8.75 25.6667C8.75 26.9501 9.8 28.5601 10.9667 29.0967L26.81 36.1434C27.5567 36.4701 28.42 36.4701 29.19 36.1434L45.0333 29.0967C46.2 28.5834 47.25 26.9501 47.25 25.6667C47.25 24.7101 48.0433 23.9167 49 23.9167C49.9567 23.9167 50.75 24.7101 50.75 25.6667C50.75 28.3034 48.86 31.2201 46.4567 32.2934L30.6133 39.3401C29.7733 39.6901 28.8867 39.8767 28 39.8767Z" fill="#2563EB"/>
<path d="M28 51.5434C27.1133 51.5434 26.2267 51.3567 25.3867 50.9834L9.54333 43.9367C6.93 42.7701 5.25 40.1801 5.25 37.3101C5.25 36.3534 6.04333 35.5601 7 35.5601C7.95667 35.5601 8.75 36.3767 8.75 37.3334C8.75 38.8034 9.61333 40.1567 10.9667 40.7634L26.81 47.8101C27.5567 48.1367 28.42 48.1367 29.19 47.8101L45.0333 40.7634C46.3867 40.1567 47.25 38.8267 47.25 37.3334C47.25 36.3767 48.0433 35.5834 49 35.5834C49.9567 35.5834 50.75 36.3767 50.75 37.3334C50.75 40.2034 49.07 42.7934 46.4567 43.9601L30.6133 51.0067C29.7733 51.3567 28.8867 51.5434 28 51.5434Z" fill="#2563EB"/>
</svg>
