<svg width="150" height="150" viewBox="0 0 150 150" fill="none" xmlns="http://www.w3.org/2000/svg">
<path d="M40.932 8.19551C4.03702 26.9915 -10.6138 72.1041 8.20445 108.954C8.87511 108.208 9.46282 107.486 10.1179 106.832C17.0147 99.9503 23.9114 93.0633 30.8047 86.1765C37.2555 79.7281 43.7045 73.2781 50.157 66.8297C58.2102 58.7861 66.2633 50.7425 74.3164 42.6972C75.0199 41.9928 75.0095 41.9894 75.7061 42.6851C84.0859 51.0654 92.4675 59.4422 100.851 67.8173C105.267 72.2198 109.682 76.6257 114.096 81.0334C122.666 89.5915 131.228 98.1547 139.784 106.725C140.473 107.417 141.089 108.182 141.799 108.98C152.73 87.5939 152.734 62.2719 141.809 40.8827C128.557 14.9322 102.242 -0.00171413 74.949 1.23357e-05C63.4838 1.23357e-05 51.8458 2.63629 40.932 8.19551Z" fill="white"/>
<path d="M22.1172 128.254C32.2376 138.298 45.0217 145.242 58.9621 148.269C66.7991 149.994 74.8643 150.434 82.8431 149.571L83.0056 149.27L58.6423 125.013L75.2723 108.365C75.3915 108.595 75.5333 108.81 75.7009 109.009C86.5352 119.825 97.3643 130.65 108.183 141.484C108.187 141.492 108.192 141.498 108.197 141.506C108.492 141.895 109.046 141.972 109.436 141.677C115.977 138.281 121.992 133.955 127.288 128.832C127.503 128.625 127.7 128.395 127.774 128.316L74.9266 75.5087L22.1172 128.254Z" fill="white"/>
</svg>
